<svg width="30" height="29" viewBox="0 0 30 29" fill="none" xmlns="http://www.w3.org/2000/svg">
	<path d="M17.6952 14.5L28.5386 3.65612C28.8368 3.35762 29.0014 2.95937 29.0019 2.53472C29.0019 2.10983 28.8373 1.71111 28.5386 1.41308L27.5883 0.463087C27.2896 0.163872 26.8913 0 26.4662 0C26.0418 0 25.6436 0.163872 25.3448 0.463087L14.5014 11.3063L3.65754 0.463087C3.35927 0.163872 2.96079 0 2.5359 0C2.11148 0 1.713 0.163872 1.41473 0.463087L0.46403 1.41308C-0.154677 2.03178 -0.154677 3.03812 0.46403 3.65612L11.3077 14.5L0.46403 25.3434C0.165523 25.6424 0.00117894 26.0406 0.00117894 26.4653C0.00117894 26.8899 0.165523 27.2882 0.46403 27.5869L1.41449 28.5369C1.71276 28.8359 2.11148 29 2.53566 29C2.96055 29 3.35903 28.8359 3.6573 28.5369L14.5012 17.6935L25.3446 28.5369C25.6433 28.8359 26.0416 29 26.466 29H26.4665C26.8911 29 27.2894 28.8359 27.5881 28.5369L28.5383 27.5869C28.8366 27.2884 29.0012 26.8899 29.0012 26.4653C29.0012 26.0406 28.8366 25.6424 28.5383 25.3436L17.6952 14.5Z" fill="white"/>
</svg>
