<svg width="285" height="219" viewBox="0 0 285 219" fill="none" xmlns="http://www.w3.org/2000/svg">
<path d="M249.375 82.125H258.281V88.9688H249.375V82.125Z" fill="white"/>
<path d="M240.469 92.3906H258.281V99.2344H240.469V92.3906Z" fill="white"/>
<path d="M231.562 102.656H258.281V109.5H231.562V102.656Z" fill="white"/>
<path d="M39.5295 42.8918L55.8122 30.3799L62.1098 35.2192L45.8272 47.7311L39.5295 42.8918Z" fill="white"/>
<path d="M26.1746 32.6296L42.4572 20.1177L48.7549 24.957L32.4722 37.4689L26.1746 32.6296Z" fill="white"/>
<path d="M262.734 123.188C266.274 123.179 269.666 122.095 272.169 120.172C274.672 118.248 276.083 115.642 276.094 112.922V17.1094C276.083 14.3893 274.672 11.7829 272.169 9.85946C269.666 7.93604 266.274 6.85187 262.734 6.84375H22.2656C18.7257 6.85187 15.3339 7.93604 12.8308 9.85946C10.3277 11.7829 8.91682 14.3893 8.90625 17.1094V112.922C8.91682 115.642 10.3277 118.248 12.8308 120.172C15.3339 122.095 18.7257 123.179 22.2656 123.188H74.3227C75.8682 125.747 78.0115 128.066 80.6461 130.031H80.1562C76.6164 130.039 73.2245 131.124 70.7214 133.047C68.2183 134.97 66.8074 137.577 66.7969 140.297V143.719H48.9844C45.4445 143.727 42.0526 144.811 39.5495 146.734C37.0465 148.658 35.6356 151.264 35.625 153.984V160.828H22.2656C18.7257 160.836 15.3339 161.92 12.8308 163.844C10.3277 165.767 8.91682 168.374 8.90625 171.094V208.734C8.90625 209.642 9.37542 210.512 10.2105 211.154C11.0457 211.796 12.1783 212.156 13.3594 212.156H40.0781C41.2592 212.156 42.3918 211.796 43.227 211.154C44.0621 210.512 44.5312 209.642 44.5312 208.734V205.312H240.469V208.734C240.469 209.642 240.938 210.512 241.773 211.154C242.608 211.796 243.741 212.156 244.922 212.156H271.641C272.822 212.156 273.954 211.796 274.789 211.154C275.625 210.512 276.094 209.642 276.094 208.734V171.094C276.083 168.374 274.672 165.767 272.169 163.844C269.666 161.92 266.274 160.836 262.734 160.828H249.375V153.984C249.364 151.264 247.954 148.658 245.45 146.734C242.947 144.811 239.555 143.727 236.016 143.719H218.203V140.297C218.193 137.577 216.782 134.97 214.279 133.047C211.775 131.124 208.384 130.039 204.844 130.031H204.354C206.988 128.066 209.132 125.747 210.677 123.188H262.734ZM35.625 205.312H17.8125V171.094C17.8125 170.186 18.2817 169.316 19.1168 168.674C19.9519 168.032 21.0846 167.672 22.2656 167.672H35.625V205.312ZM249.375 167.672H262.734C263.915 167.672 265.048 168.032 265.883 168.674C266.718 169.316 267.188 170.186 267.188 171.094V205.312H249.375V167.672ZM71.6063 116.344H22.2656C21.0846 116.344 19.9519 115.983 19.1168 115.342C18.2817 114.7 17.8125 113.829 17.8125 112.922V17.1094C17.8125 16.2018 18.2817 15.3315 19.1168 14.6897C19.9519 14.048 21.0846 13.6875 22.2656 13.6875H262.734C263.915 13.6875 265.048 14.048 265.883 14.6897C266.718 15.3315 267.188 16.2018 267.188 17.1094V112.922C267.188 113.829 266.718 114.7 265.883 115.342C265.048 115.983 263.915 116.344 262.734 116.344H213.394C213.625 115.212 213.744 114.068 213.75 112.922C213.75 106.569 210.466 100.477 204.62 95.9845C198.774 91.4924 190.845 88.9688 182.578 88.9688C174.311 88.9688 166.382 91.4924 160.536 95.9845C154.69 100.477 151.406 106.569 151.406 112.922C151.412 114.068 151.532 115.212 151.763 116.344H133.238C133.468 115.212 133.588 114.068 133.594 112.922C133.594 106.569 130.31 100.477 124.464 95.9845C118.618 91.4924 110.689 88.9688 102.422 88.9688C94.1546 88.9688 86.2259 91.4924 80.38 95.9845C74.5342 100.477 71.25 106.569 71.25 112.922C71.2562 114.068 71.3753 115.212 71.6063 116.344ZM124.688 130.031H124.198C126.832 128.066 128.976 125.747 130.521 123.188H154.479C156.024 125.747 158.168 128.066 160.802 130.031H160.312C156.773 130.039 153.381 131.124 150.878 133.047C148.375 134.97 146.964 137.577 146.953 140.297V143.719H138.047V140.297C138.036 137.577 136.625 134.97 134.122 133.047C131.619 131.124 128.227 130.039 124.688 130.031ZM80.1562 112.922C80.1562 109.538 81.4621 106.23 83.9087 103.416C86.3553 100.603 89.8327 98.4098 93.9012 97.1149C97.9697 95.8199 102.447 95.4811 106.766 96.1413C111.085 96.8014 115.052 98.4309 118.166 100.824C121.28 103.217 123.401 106.265 124.26 109.584C125.119 112.903 124.678 116.343 122.993 119.469C121.307 122.596 118.454 125.268 114.792 127.148C111.13 129.028 106.826 130.031 102.422 130.031C96.5167 130.031 90.8533 128.229 86.6777 125.02C82.5021 121.811 80.1562 117.46 80.1562 112.922ZM75.7031 140.297C75.7031 139.389 76.1723 138.519 77.0074 137.877C77.8425 137.236 78.9752 136.875 80.1562 136.875H124.688C125.869 136.875 127.001 137.236 127.836 137.877C128.671 138.519 129.141 139.389 129.141 140.297V143.719H75.7031V140.297ZM236.016 150.562C237.197 150.562 238.329 150.923 239.164 151.565C240 152.206 240.469 153.077 240.469 153.984V198.469H44.5312V153.984C44.5312 153.077 45.0004 152.206 45.8355 151.565C46.6707 150.923 47.8033 150.562 48.9844 150.562H236.016ZM204.844 136.875C206.025 136.875 207.157 137.236 207.993 137.877C208.828 138.519 209.297 139.389 209.297 140.297V143.719H155.859V140.297C155.859 139.389 156.329 138.519 157.164 137.877C157.999 137.236 159.131 136.875 160.312 136.875H204.844ZM182.578 130.031C178.174 130.031 173.87 129.028 170.208 127.148C166.546 125.268 163.693 122.596 162.007 119.469C160.322 116.343 159.881 112.903 160.74 109.584C161.599 106.265 163.72 103.217 166.834 100.824C169.948 98.4309 173.915 96.8014 178.234 96.1413C182.553 95.4811 187.03 95.8199 191.099 97.1149C195.167 98.4098 198.645 100.603 201.091 103.416C203.538 106.23 204.844 109.538 204.844 112.922C204.844 117.46 202.498 121.811 198.322 125.02C194.147 128.229 188.483 130.031 182.578 130.031Z" fill="white"/>
<path d="M180.129 55.1265L126.691 34.5953C126.014 34.3328 125.26 34.2078 124.501 34.2322C123.743 34.2567 123.005 34.4297 122.358 34.7348C121.711 35.0399 121.176 35.4671 120.805 35.9757C120.433 36.4843 120.237 37.0575 120.234 37.6408V78.7033C120.233 79.2848 120.424 79.857 120.79 80.3659C121.157 80.8748 121.686 81.3036 122.327 81.6119C123.037 81.947 123.854 82.1247 124.688 82.1251C125.384 82.1182 126.069 81.9895 126.691 81.7487L180.129 61.2175C180.858 60.9303 181.47 60.4941 181.898 59.9567C182.325 59.4194 182.552 58.8018 182.552 58.172C182.552 57.5422 182.325 56.9247 181.898 56.3873C181.47 55.85 180.858 55.4137 180.129 55.1265ZM129.141 73.1598V43.1842L168.15 58.172L129.141 73.1598Z" fill="white"/>
</svg>
