<svg width="285" height="219" viewBox="0 0 285 219" fill="none" xmlns="http://www.w3.org/2000/svg">
<g clip-path="url(#clip0)">
<path d="M159.745 130.856L161.757 129.659C180.442 118.509 192.061 101.962 194.186 84.1298C222.383 82.412 244.644 64.2324 244.644 42.1318C244.644 34.5648 242.002 27.1427 237.003 20.6673C235.827 19.1433 233.266 18.6407 231.283 19.5445C229.3 20.4483 228.646 22.4163 229.822 23.9403C234.056 29.4256 236.294 35.7158 236.294 42.1318C236.294 60.6014 217.954 75.8416 194.534 77.6646C194.523 76.6526 194.492 75.6388 194.42 74.623L194.415 74.5678L192.219 51.1433C192.062 49.4653 190.244 48.1659 188.055 48.1659H144.012C143.575 46.203 143.336 44.1892 143.336 42.1318C143.336 22.4381 164.186 6.41602 189.815 6.41602C200.505 6.41602 210.942 9.27285 219.203 14.46C220.99 15.5815 223.62 15.3775 225.078 14.0057C226.537 12.6336 226.272 10.6129 224.486 9.49185C214.737 3.37097 202.425 0 189.814 0C159.582 0 134.985 18.9003 134.985 42.1318C134.985 44.1807 135.181 46.1945 135.55 48.1659H89.0625C86.7563 48.1659 84.8877 49.6022 84.8877 51.3739C84.8877 53.1456 86.7563 54.5819 89.0625 54.5819H137.43C143.976 70.8119 162.97 82.874 185.798 84.1503C185.027 89.9564 183.14 95.6055 180.238 100.921C175.241 97.1393 166.053 92.0476 152.81 92.0476C149.575 92.0476 146.341 92.4685 143.117 93.1785C143.256 92.2845 143.334 91.3803 143.334 90.4662C143.334 78.0838 130.224 68.0102 114.111 68.0102C97.9971 68.0102 84.8871 78.0838 84.8871 90.4662C84.8871 91.0073 84.9189 91.5424 84.9673 92.0745C72.5614 92.4522 63.9575 97.2185 59.1102 100.909C54.705 92.8359 52.6365 83.9951 53.2711 75.0002L55.1848 54.5823H71.0713C73.3775 54.5823 75.2461 53.146 75.2461 51.3743C75.2461 49.6026 73.3775 48.1663 71.0713 48.1663H51.2994C49.1102 48.1663 47.2927 49.4658 47.1358 51.1438L44.9404 74.5682L44.9354 74.6234C43.4152 95.9742 55.6251 116.548 77.5974 129.659L79.6091 130.857C97.9504 141.764 107.157 147.238 107.157 176.065V187.472C107.157 194.244 99.9916 199.752 91.185 199.752H57.7225C48.1472 199.752 40.3564 205.741 40.3564 213.102C40.3564 216.354 43.7987 219 48.0297 219H142.5C144.806 219 146.675 217.564 146.675 215.792C146.675 214.02 144.806 212.584 142.5 212.584H48.7311C49.0768 209.002 52.9777 206.168 57.7231 206.168H91.1855C104.597 206.168 115.507 197.781 115.507 187.471V176.064C115.507 158.344 111.743 148.209 105.233 140.817C110.129 141.931 114.985 142.525 119.677 142.525C124.34 142.525 129.184 141.954 134.072 140.872C127.593 148.26 123.848 158.388 123.848 176.065V187.472C123.848 197.781 134.759 206.168 148.169 206.168H181.632C186.377 206.168 190.278 209.002 190.624 212.584H160.548C158.242 212.584 156.373 214.021 156.373 215.792C156.373 217.564 158.242 219 160.548 219H191.325C195.557 219 198.998 216.354 198.998 213.102C198.998 205.741 191.208 199.752 181.632 199.752H148.169C139.363 199.752 132.198 194.243 132.198 187.472V176.065C132.198 147.238 141.404 141.763 159.745 130.856ZM146.253 54.5819H184.17L186.083 74.9998C186.148 75.9113 186.175 76.8207 186.185 77.7283C167.835 76.6329 152.44 67.322 146.253 54.5819ZM114.111 74.4258C125.622 74.4258 134.985 81.6211 134.985 90.4658C134.985 92.3705 134.555 94.2162 133.716 95.9708C129.128 97.6334 124.577 99.6412 120.09 101.622C116.415 103.244 112.844 104.819 109.464 106.103C101.851 104.785 95.9943 100.377 93.9882 94.7667C93.9643 94.6794 93.9364 94.593 93.903 94.5083C93.4705 93.2144 93.2367 91.8602 93.2367 90.4658C93.2373 81.6211 102.601 74.4258 114.111 74.4258ZM97.7951 109.123C85.4154 110.515 72.0015 107.469 64.9895 105.485C68.8971 102.536 76.1685 98.4649 86.547 98.4649C86.625 98.4649 86.7062 98.4704 86.7842 98.4713C88.9289 102.828 92.787 106.546 97.7951 109.123ZM87.1209 127.212C86.3327 126.741 82.7185 124.591 82.7185 124.591C77.1031 121.24 72.1974 117.348 68.0777 113.053C74.4947 114.542 82.6712 115.903 91.1299 115.903C94.7135 115.903 98.3467 115.659 101.918 115.076C105.132 114.552 108.42 113.586 111.788 112.365C111.802 112.36 111.815 112.355 111.828 112.35C115.849 110.891 119.984 109.068 124.249 107.185C128.986 105.094 133.802 102.969 138.515 101.34C138.629 101.305 138.74 101.267 138.85 101.224C143.682 99.5757 148.402 98.4636 152.81 98.4636C165.25 98.4636 173.164 104.231 176.309 107.077C171.394 113.769 164.756 119.746 156.636 124.591C156.636 124.591 153.021 126.743 152.232 127.215C141.618 132.834 129.76 136.11 119.677 136.11C109.594 136.109 97.735 132.832 87.1209 127.212Z" fill="white"/>
<path d="M186.196 16.2539V23.0977C186.196 24.8693 188.065 26.3057 190.371 26.3057C192.677 26.3057 194.546 24.8693 194.546 23.0977V16.2539C194.546 14.4822 192.677 13.0459 190.371 13.0459C188.065 13.0459 186.196 14.4822 186.196 16.2539Z" fill="white"/>
<path d="M177.318 28.9798C178.026 28.9798 178.745 28.8413 179.402 28.5495C181.399 27.6637 182.083 25.7017 180.93 24.1674L176.477 18.2407C175.325 16.706 172.77 16.1803 170.774 17.0666C168.777 17.9524 168.093 19.9144 169.246 21.4487L173.699 27.3754C174.472 28.4045 175.876 28.9798 177.318 28.9798Z" fill="white"/>
<path d="M204.314 68.1227C205.088 69.1518 206.491 69.7271 207.934 69.7271C208.642 69.7271 209.36 69.5885 210.017 69.2968C212.014 68.411 212.698 66.449 211.545 64.9147L207.092 58.988C205.939 57.4537 203.385 56.928 201.389 57.8139C199.393 58.6997 198.708 60.6617 199.861 62.196L204.314 68.1227Z" fill="white"/>
<path d="M171.362 34.7072C172.515 33.1729 171.831 31.2109 169.834 30.325L162.121 26.9032C160.123 26.0169 157.57 26.543 156.418 28.0773C155.265 29.6116 155.95 31.5736 157.946 32.4594L165.659 35.8813C166.317 36.173 167.034 36.3116 167.743 36.3116C169.185 36.312 170.589 35.7363 171.362 34.7072Z" fill="white"/>
<path d="M220.77 59.8375C222.213 59.8375 223.616 59.2618 224.389 58.2331C225.542 56.6988 224.858 54.7368 222.861 53.8509L215.148 50.429C213.15 49.5428 210.598 50.0689 209.446 51.6032C208.293 53.1375 208.977 55.0995 210.973 55.9853L218.686 59.4072C219.344 59.6985 220.062 59.8375 220.77 59.8375Z" fill="white"/>
<path d="M164.231 39.9213H155.325C153.019 39.9213 151.15 41.3576 151.15 43.1293C151.15 44.9009 153.019 46.3373 155.325 46.3373H164.231C166.537 46.3373 168.406 44.9009 168.406 43.1293C168.406 41.3576 166.537 39.9213 164.231 39.9213Z" fill="white"/>
<path d="M229.637 43.1293C229.637 41.3576 227.768 39.9213 225.462 39.9213H216.555C214.249 39.9213 212.381 41.3576 212.381 43.1293C212.381 44.9009 214.249 46.3373 216.555 46.3373H225.462C227.768 46.3373 229.637 44.9009 229.637 43.1293Z" fill="white"/>
<path d="M209.409 34.6627C210.182 35.6918 211.586 36.2671 213.029 36.2671C213.737 36.2671 214.455 36.1286 215.112 35.8368L222.825 32.415C224.822 31.5291 225.506 29.5671 224.353 28.0328C223.201 26.4981 220.646 25.9724 218.65 26.8587L210.937 30.2806C208.941 31.1664 208.257 33.1284 209.409 34.6627Z" fill="white"/>
<path d="M209.955 16.9892C207.959 16.1029 205.404 16.6286 204.252 18.1633L199.799 24.09C198.646 25.6243 199.33 27.5863 201.327 28.4721C201.984 28.7639 202.702 28.9024 203.41 28.9024C204.853 28.9024 206.256 28.3271 207.03 27.298L211.483 21.3713C212.636 19.837 211.951 17.875 209.955 16.9892Z" fill="white"/>
</g>
<defs>
<clipPath id="clip0">
<rect width="285" height="219" fill="white"/>
</clipPath>
</defs>
</svg>
