<svg width="42" height="43" viewBox="0 0 42 43" fill="none" xmlns="http://www.w3.org/2000/svg">
    <g clip-path="url(#clip0)">
        <path d="M9.13675 23.3415H5.87018V32.1672H3.6729V23.3415H0.450241V21.5735H9.13675V23.3415Z" fill="white"/>
        <path d="M2.47788 10.6896H0.0691376V18.426H2.47788V10.6896Z" fill="white"/>
        <path d="M21.4116 1.70866L19.3764 0.309097L-2.26246e-05 10.7125L2.03519 12.1121L21.4116 1.70866Z" fill="white"/>
        <path d="M36.1382 12.4845L38.2373 11.2159L19.8778 1.25621e-05L17.7788 1.26864L36.1382 12.4845Z" fill="white"/>
        <path d="M35.165 32.1306L37.8266 32.1528L38.3002 11.2133L35.6386 11.1911L35.165 32.1306Z" fill="white"/>
        <path d="M12.1265 29.9152L12.1062 32.0904L37.5183 32.1783L37.5387 30.0032L12.1265 29.9152Z" fill="white"/>
        <path d="M19.1127 9.6028H16.2273V11.7315H19.1127V9.6028Z" fill="white"/>
        <path d="M22.4103 9.6028H19.5249V11.7315H22.4103V9.6028Z" fill="white"/>
        <path d="M22.4103 12.1573H19.5249V14.286H22.4103V12.1573Z" fill="white"/>
        <path d="M19.1127 12.1573H16.2273V14.286H19.1127V12.1573Z" fill="white"/>
        <path d="M8.13754 42.8105H6.31693V39.0489H2.76679V42.8105H0.946198V34.0331H2.76679V37.59H6.31693V34.0331H8.13754V42.8105ZM16.9917 38.6209C16.9917 39.4849 16.8379 40.2425 16.5305 40.8936C16.223 41.5447 15.782 42.0471 15.2075 42.4008C14.637 42.7543 13.9816 42.9315 13.2413 42.9315C12.509 42.9315 11.8556 42.7565 11.2811 42.4068C10.7066 42.0571 10.2615 41.5588 9.94599 40.9117C9.63043 40.2606 9.47062 39.5131 9.46659 38.6691V38.235C9.46659 37.3709 9.62233 36.6113 9.93386 35.9562C10.2494 35.2971 10.6924 34.7927 11.2629 34.443C11.8374 34.0894 12.4928 33.9125 13.2291 33.9125C13.9654 33.9125 14.6188 34.0894 15.1893 34.443C15.7638 34.7927 16.2068 35.2971 16.5183 35.9562C16.8339 36.6113 16.9917 37.3689 16.9917 38.229V38.6209ZM15.1468 38.223C15.1468 37.3026 14.9809 36.6033 14.6492 36.125C14.3174 35.6467 13.8441 35.4076 13.2291 35.4076C12.6182 35.4076 12.1469 35.6447 11.8151 36.119C11.4834 36.5892 11.3155 37.2805 11.3114 38.1928V38.6209C11.3114 39.5171 11.4773 40.2124 11.8091 40.7067C12.1408 41.2011 12.6182 41.4483 13.2413 41.4483C13.8522 41.4483 14.3215 41.2111 14.6492 40.7369C14.9769 40.2586 15.1428 39.5633 15.1468 38.651V38.223ZM24.444 35.498H21.7374V42.8105H19.9167V35.498H17.2466V34.0331H24.444V35.498ZM30.8039 39.0067H27.3084V41.3578H31.4108V42.8105H25.4878V34.0331H31.3986V35.498H27.3084V37.59H30.8039V39.0067ZM34.2994 41.3578H38.1651V42.8105H32.4789V34.0331H34.2994V41.3578Z" fill="white"/>
    </g>
    <defs>
        <clipPath id="clip0">
            <rect width="42" height="43" fill="white"/>
        </clipPath>
    </defs>
</svg>
