<svg width="40" height="30" viewBox="0 0 40 30" fill="none" xmlns="http://www.w3.org/2000/svg">
    <path d="M0.271075 2.49961C0.267109 3.11786 0.489304 3.71567 0.894736 4.17754C1.30017 4.63942 1.86006 4.93258 2.46626 5.00039H37.5337C38.1399 4.93258 38.6998 4.63942 39.1053 4.17754C39.5107 3.71567 39.7329 3.11786 39.7289 2.49961C39.7326 1.88156 39.5103 1.28404 39.1049 0.822412C38.6995 0.360787 38.1397 0.0677933 37.5337 0H2.46626C1.86026 0.0677933 1.30053 0.360787 0.895125 0.822412C0.48972 1.28404 0.267396 1.88156 0.271075 2.49961V2.49961ZM2.46626 17.4996H37.5337C38.1877 17.4996 38.8148 17.2363 39.2772 16.7675C39.7396 16.2987 39.9994 15.6629 39.9994 15C39.9994 14.3371 39.7396 13.7013 39.2772 13.2325C38.8148 12.7637 38.1877 12.5004 37.5337 12.5004H2.46626C1.81232 12.5004 1.18516 12.7637 0.722759 13.2325C0.260354 13.7013 0.000577667 14.3371 0.000577667 15C0.000577667 15.6629 0.260354 16.2987 0.722759 16.7675C1.18516 17.2363 1.81232 17.4996 2.46626 17.4996V17.4996ZM2.46626 30H37.5337C37.8576 30 38.1783 29.9353 38.4775 29.8097C38.7768 29.684 39.0486 29.4999 39.2776 29.2677C39.5067 29.0355 39.6883 28.7599 39.8123 28.4566C39.9362 28.1533 40 27.8281 40 27.4998C40 27.1715 39.9362 26.8464 39.8123 26.543C39.6883 26.2397 39.5067 25.9641 39.2776 25.7319C39.0486 25.4997 38.7768 25.3156 38.4775 25.1899C38.1783 25.0643 37.8576 24.9996 37.5337 24.9996H2.46626C1.81217 24.9996 1.18486 25.263 0.722351 25.7319C0.259838 26.2008 0 26.8367 0 27.4998C0 28.1629 0.259838 28.7988 0.722351 29.2677C1.18486 29.7366 1.81217 30 2.46626 30V30Z" fill="white"/>
</svg>
