<svg width="280" height="236" viewBox="0 0 280 236" fill="none" xmlns="http://www.w3.org/2000/svg">
<path d="M4.8523 129.902C14.7133 129.902 19.3831 133.9 24.7899 138.532C30.6254 143.528 37.2381 149.191 49.9019 149.191C62.5658 149.191 69.1761 143.528 75.0116 138.532C80.4183 133.9 85.0882 129.902 94.9492 129.902C104.81 129.902 109.48 133.9 114.887 138.532C120.722 143.528 127.335 149.191 139.999 149.191C152.663 149.191 159.275 143.528 165.109 138.532C170.515 133.9 175.185 129.902 185.048 129.902C194.909 129.902 199.579 133.9 204.988 138.532C210.822 143.528 217.434 149.191 230.098 149.191C242.76 149.191 249.375 143.528 255.208 138.532C260.617 133.9 265.287 129.902 275.148 129.902C277.827 129.902 280 126.948 280 123.305C280 119.662 277.827 116.708 275.148 116.708C262.484 116.708 255.871 122.371 250.038 127.367C244.631 131.999 239.959 135.997 230.098 135.997C221.315 135.997 216.7 132.824 211.964 128.855C212.089 128.308 212.163 127.738 212.182 127.164V29.5483C212.165 20.5321 217.529 13.2103 224.161 13.1942C226.84 13.1974 229.015 10.2467 229.02 6.60353C229.022 2.96033 226.852 0.00324554 224.172 2.36923e-05C212.182 0.0193515 202.47 13.2457 202.475 29.5483V38.0105H169.115V29.5483C169.16 20.4999 174.569 13.1942 181.227 13.1942C183.906 13.1845 186.074 10.2242 186.07 6.58099C186.062 2.93778 183.885 -0.00963936 181.205 2.36923e-05C169.196 0.00968757 159.453 13.2199 159.41 29.5483V126.195C159.436 126.665 159.503 127.129 159.602 127.58C154.3 132.115 149.663 135.997 139.954 135.997C130.093 135.997 125.444 131.996 120.035 127.367C114.311 122.461 107.838 116.918 95.6244 116.715C92.1937 112.591 89.4643 109.129 86.588 105.502C85.1925 103.736 83.7235 101.871 82.0816 99.8226C85.7753 104.107 90.4689 106.458 95.3235 106.455C97.6454 106.452 99.9507 105.927 102.145 104.902C107.345 102.448 111.605 97.2617 113.972 90.5035C116.377 83.8066 116.676 76.0692 114.801 69.0631C112.418 59.5218 106.445 52.4577 99.1641 50.57C91.8833 48.6824 84.4177 52.2644 79.6199 59.947C74.8221 67.6264 73.4313 78.2242 75.983 87.685C77.0255 91.7373 78.7338 95.4127 80.9751 98.4342C78.8996 95.8508 76.5469 92.9613 73.7464 89.5919C66.2808 80.6144 58.8602 71.5434 51.9537 63.078C48.7836 59.1932 45.1728 57.8146 41.2209 58.9871C36.8448 60.282 32.4663 61.5641 28.0832 62.8268C23.0887 64.2763 17.9237 65.7742 12.8439 67.2914C6.39944 69.2209 2.28873 77.8313 3.61553 86.622C4.82861 95.2226 10.9082 100.892 17.2484 99.3329C24.0269 97.6096 30.969 95.5899 37.8731 93.3318C38.373 93.1482 38.8824 93.0322 39.3965 92.9871C39.5244 93.1643 39.6382 93.3543 39.7424 93.5573C40.9437 95.8121 42.2468 97.9639 43.6423 100.006C43.8768 100.348 43.9858 100.811 43.9455 101.275C43.9124 101.749 43.7276 102.177 43.4409 102.448L23.1242 122.017C18.5918 119.034 12.9647 116.708 4.8523 116.708C2.17264 116.708 0 119.662 0 123.305C0 126.948 2.17264 129.902 4.8523 129.902V129.902ZM202.475 92.4363H169.115V80.0668H202.475V92.4363ZM169.115 120.509V105.63H202.475V121.414C198.229 118.725 192.571 116.708 185.013 116.708C179.582 116.589 174.188 117.881 169.115 120.509ZM202.475 51.2046V66.8726H169.115V51.2046H202.475ZM85.5218 71.9525C86.7799 68.4285 89.0236 65.7388 91.753 64.4825C97.5601 61.7251 103.55 65.6454 105.687 73.5921C106.656 77.2611 106.488 81.3102 105.22 84.8084C103.327 90.233 99.2092 93.5637 94.7999 93.2287C90.3907 92.8969 86.569 88.967 85.1309 83.2912C84.1405 79.5933 84.2803 75.5087 85.5218 71.9525ZM49.049 113.21C51.5983 110.755 53.2521 106.929 53.5909 102.706C53.9273 98.4793 52.9157 94.2627 50.8141 91.1188C49.6863 89.4728 48.6296 87.7397 47.6535 85.923C43.4835 77.9311 37.7593 79.8026 35.6033 80.5081C28.8579 82.7114 22.0818 84.6828 15.462 86.3643C14.3745 86.5704 13.3557 85.588 13.1424 84.1223C12.9766 83.2751 13.0737 82.3764 13.4102 81.6291C13.7466 80.885 14.2939 80.3599 14.9241 80.1795C19.9755 78.672 25.1263 77.1741 30.1065 75.731C34.5016 74.4554 38.8942 73.1701 43.2845 71.8784C43.9408 71.6819 44.4478 71.6465 45.4524 72.877C52.3778 81.3649 59.8174 90.4617 67.3114 99.4747C72.8603 106.149 76.6464 110.939 79.9895 115.162C80.9562 116.383 81.9086 117.591 82.8753 118.805C77.3904 120.905 73.4645 124.265 69.8395 127.37C64.4328 132.003 59.7629 136 49.9043 136C41.4838 136 36.8495 133.082 32.3076 129.345L49.049 113.21Z" fill="white"/>
<path d="M4.8523 173.305C14.7133 173.305 19.3831 177.306 24.7899 181.935C30.6254 186.934 37.2381 192.597 49.9019 192.597C62.5658 192.597 69.1761 186.934 75.0116 181.935C80.4183 177.306 85.0882 173.305 94.9492 173.305C104.81 173.305 109.48 177.306 114.887 181.935C120.722 186.934 127.335 192.597 139.999 192.597C152.663 192.597 159.275 186.934 165.109 181.935C170.515 177.306 175.185 173.305 185.048 173.305C194.909 173.305 199.579 177.306 204.988 181.935C210.822 186.934 217.434 192.597 230.098 192.597C242.76 192.597 249.375 186.934 255.208 181.935C260.617 177.306 265.287 173.305 275.148 173.305C277.827 173.305 280 170.351 280 166.708C280 163.065 277.827 160.111 275.148 160.111C262.484 160.111 255.871 165.777 250.038 170.773C244.629 175.402 239.957 179.403 230.096 179.403C220.235 179.403 215.565 175.402 210.156 170.777C204.323 165.78 197.71 160.114 185.046 160.114C172.385 160.114 165.77 165.78 159.936 170.777C154.527 175.405 149.857 179.406 139.996 179.406C130.135 179.406 125.463 175.402 120.057 170.777C114.223 165.78 107.611 160.114 94.9468 160.114C82.283 160.114 75.6703 165.78 69.8347 170.777C64.428 175.409 59.7605 179.406 49.8996 179.406C40.0386 179.406 35.3735 175.402 29.962 170.777C24.1288 165.78 17.5161 160.114 4.8523 160.114C2.17264 160.114 0 163.068 0 166.711C0 170.358 2.17264 173.308 4.8523 173.308V173.305Z" fill="white"/>
<path d="M4.8523 216.708C14.7133 216.708 19.3831 220.709 24.7899 225.338C30.6254 230.337 37.2381 236 49.9019 236C62.5658 236 69.1761 230.337 75.0116 225.338C80.4183 220.709 85.0882 216.708 94.9492 216.708C104.81 216.708 109.48 220.709 114.887 225.338C120.722 230.337 127.335 236 139.999 236C152.663 236 159.275 230.337 165.109 225.338C170.515 220.709 175.185 216.708 185.048 216.708C194.909 216.708 199.579 220.709 204.988 225.338C210.822 230.337 217.434 236 230.098 236C242.76 236 249.375 230.337 255.208 225.338C260.617 220.709 265.287 216.708 275.148 216.708C277.827 216.708 280 213.754 280 210.111C280 206.468 277.827 203.514 275.148 203.514C262.484 203.514 255.871 209.177 250.038 214.176C244.629 218.808 239.957 222.812 230.096 222.812C220.235 222.812 215.565 218.812 210.156 214.179C204.323 209.183 197.71 203.52 185.046 203.52C172.385 203.52 165.77 209.183 159.936 214.179C154.527 218.812 149.857 222.812 139.996 222.812C130.135 222.812 125.466 218.812 120.059 214.179C114.223 209.18 107.611 203.514 94.9468 203.514C82.283 203.514 75.6703 209.177 69.8371 214.176C64.4304 218.805 59.7605 222.806 49.8996 222.806C40.0386 222.806 35.3687 218.805 29.962 214.176C24.1288 209.18 17.5161 203.514 4.8523 203.514C2.17264 203.514 0 206.468 0 210.111C0 213.754 2.17264 216.708 4.8523 216.708V216.708Z" fill="white"/>
</svg>
