<svg width="285" height="259" viewBox="0 0 285 259" fill="none" xmlns="http://www.w3.org/2000/svg">
<path d="M272.839 131.886H262.945C262.019 117.055 258.355 102.74 252.015 89.2832C251.047 87.2229 248.568 86.3311 246.479 87.2851C244.389 88.2413 243.482 90.6853 244.452 92.7455C250.277 105.113 253.676 118.262 254.589 131.886H63.6223C61.3196 131.886 59.454 133.725 59.454 135.996C59.454 138.266 61.3196 140.106 63.6223 140.106H272.839C274.948 140.106 276.661 141.797 276.661 143.877V148.893C276.661 150.973 274.948 152.664 272.839 152.664H12.1613C10.0521 152.664 8.33874 150.973 8.33874 148.893V143.877C8.33874 141.797 10.0521 140.106 12.1613 140.106H44.1899C46.4925 140.106 48.3603 138.266 48.3603 135.996C48.3603 133.725 46.4925 131.886 44.1899 131.886H30.4108C32.2482 104.58 44.1246 79.177 64.142 59.9638C83.433 41.4494 108.36 30.55 135.001 28.8221C135.016 28.8221 135.031 28.8242 135.046 28.8221C136.181 28.7492 137.303 28.6934 138.412 28.6527C138.634 28.6463 138.854 28.6355 139.075 28.6291C139.471 28.6162 139.865 28.6077 140.254 28.5991C141.002 28.5862 141.75 28.5734 142.5 28.5734C143.496 28.5734 144.492 28.5927 145.485 28.6184C145.779 28.627 146.07 28.6355 146.366 28.6441C147.131 28.6698 147.895 28.7084 148.658 28.7492C149.062 28.7706 149.467 28.792 149.873 28.8178C184.1 31.0345 215.59 48.5842 235.185 76.7245C236.487 78.5939 239.084 79.072 240.982 77.7857C242.88 76.5015 243.363 73.9417 242.058 72.0701C222.776 44.3779 192.763 26.2408 159.591 21.5629C161.669 18.3815 162.837 14.6361 162.837 10.7129C162.837 8.47897 161.826 4.36061 155.055 1.90375C151.674 0.67746 147.214 0 142.5 0C137.784 0 133.324 0.67746 129.943 1.90375C123.172 4.36061 122.163 8.47897 122.163 10.7129C122.163 14.6254 123.326 18.3643 125.392 21.5394C100.206 25.0531 76.8468 36.2955 58.3255 54.0724C36.6883 74.84 23.9051 102.341 22.0547 131.884H12.1613C5.45551 131.886 0 137.265 0 143.877V148.893C0 155.507 5.45551 160.886 12.1613 160.886H57.0731C54.8313 162.4 52.683 164.097 50.6717 165.982L50.5891 166.059C50.4608 166.177 50.339 166.303 50.2281 166.439L30.4348 190.137C27.9516 188.582 25.0119 188.017 22.1112 188.565C19.0867 189.136 16.4709 190.834 14.7445 193.346L6.96018 204.664C3.40073 209.841 4.77493 216.914 10.0217 220.427L63.2874 256.105C65.2183 257.398 67.4492 258.071 69.7345 258.071C70.4607 258.071 71.1935 258.003 71.9241 257.866C74.9464 257.295 77.5622 255.597 79.2887 253.085L87.0729 241.767C90.6324 236.59 89.2604 229.517 84.0136 226.004L83.7092 225.8C87.4165 221.652 92.3589 218.678 97.7361 217.452C109.067 214.864 122.4 216.53 131.443 218.007C142.63 219.834 154.381 219.21 165.424 216.202L180.776 212.019C191.002 209.232 200.412 204.539 208.749 198.069C208.812 198.02 208.873 197.97 208.934 197.917L235.289 174.903C239.782 171.513 240.76 165.643 239.21 160.886H272.839C279.544 160.886 285 155.507 285 148.895V143.877C285 137.265 279.544 131.886 272.839 131.886ZM142.5 8.2217C149.521 8.2217 153.728 9.93465 154.498 10.8865C154.442 14.7862 152.441 18.3836 149.186 20.5403C148.366 20.4974 147.558 20.4631 146.751 20.4331C146.479 20.4246 146.207 20.4117 145.936 20.4053C144.772 20.371 143.624 20.3538 142.5 20.3538C141.702 20.3538 140.889 20.3645 140.069 20.3817C139.673 20.3881 139.275 20.3988 138.877 20.4117C138.403 20.4267 137.925 20.4417 137.447 20.461C136.901 20.4846 136.355 20.5082 135.812 20.5382C132.557 18.3815 130.558 14.7841 130.502 10.8865C131.272 9.93465 135.479 8.2217 142.5 8.2217ZM172.398 162.869C172.087 162.174 171.715 161.514 171.295 160.886H211.284L193.994 172.169L169.347 179.199L168.51 179.218C173.254 175.318 174.985 168.66 172.398 162.869ZM127.188 160.886L121.172 162.123L116.521 160.886H127.188ZM80.1715 237.154L72.3894 248.471C71.9132 249.166 71.1913 249.633 70.3563 249.792C69.5235 249.948 68.6755 249.777 67.9732 249.305L14.7075 213.627C13.2594 212.658 12.881 210.707 13.8638 209.279L21.6481 197.96C22.1243 197.267 22.844 196.798 23.679 196.641C23.8812 196.603 24.0834 196.583 24.2834 196.583C24.914 196.583 25.5294 196.77 26.0621 197.128L28.9388 199.053C28.9388 199.055 28.941 199.055 28.941 199.055L79.3278 232.804C80.7759 233.773 81.1543 235.726 80.1715 237.154ZM230.173 168.411C230.073 168.482 229.977 168.559 229.884 168.64L203.5 191.683C196.061 197.434 187.668 201.611 178.556 204.093L163.204 208.276C153.32 210.971 142.809 211.53 132.809 209.897C123.063 208.306 108.634 206.524 95.8553 209.442C88.4537 211.132 81.6957 215.325 76.7794 221.156L37.3732 194.763L56.499 171.863C63.7332 165.129 72.9069 161.13 81.6914 160.886H81.861C84.5855 160.841 87.4687 161.632 90.5193 162.475C91.1325 162.642 91.7435 162.811 92.3567 162.974L119.963 170.317C120.595 170.484 121.259 170.503 121.9 170.37L158.055 162.938C159.695 162.603 161.417 162.931 162.78 163.842C163.661 164.432 164.348 165.242 164.768 166.183C166.007 168.955 164.84 172.21 162.069 173.616L149.734 180.056C148.027 180.948 147.166 182.878 147.651 184.721C148.138 186.567 149.841 187.824 151.776 187.798L170.073 187.408C170.436 187.399 170.795 187.345 171.141 187.247L196.922 179.893C197.329 179.778 197.714 179.602 198.066 179.372L224.076 162.397C226.259 161.068 229.164 159.975 230.71 162.224C231.915 163.973 231.943 167.122 230.173 168.411Z" fill="white"/>
</svg>
