<svg width="271" height="219" viewBox="0 0 271 219" fill="none" xmlns="http://www.w3.org/2000/svg">
<g clip-path="url(#clip0)">
<path d="M176.462 219.292H0V205.995C3.21048 208.057 7.30957 209.308 11.724 209.308H164.279L176.462 219.292ZM76.3635 24.0366C66.904 24.0366 59.2218 30.2448 59.2218 37.8891C59.2218 42.6379 62.1743 46.8307 66.7034 49.3324C68.6526 44.9775 71.8057 40.97 75.9908 37.588C80.1759 34.2059 85.1349 31.6578 90.524 30.0826C87.4281 26.4228 82.2398 24.0366 76.3635 24.0366ZM71.4618 60.3359C71.4618 74.9296 86.1098 86.7436 104.14 86.7436C122.17 86.7436 136.818 74.9065 136.818 60.3359C136.818 45.7422 122.17 33.9282 104.14 33.9282C100.299 33.9282 96.6296 34.461 93.2185 35.4339C83.9597 38.0978 76.5928 44.028 73.325 51.5102C72.121 54.2899 71.4618 57.2548 71.4618 60.3359ZM53.7181 96.7737C46.0646 110.487 29.3816 145.535 24.7952 154.361H81.7238C82.9851 151.86 84.3899 149.427 85.9376 147.134C91.2979 139.049 108.039 135.042 104.054 123.761C104.025 123.668 103.968 123.575 103.939 123.459L118.931 134.95C120.049 135.806 121.396 136.501 122.83 136.942L163.821 149.59C165.196 150.007 166.63 150.215 168.034 150.215C172.793 150.215 177.264 147.875 179.041 144.076C181.364 139.166 178.325 133.652 172.219 131.776L135.987 120.587C134.295 120.054 132.747 119.267 131.429 118.271C131.429 118.271 99.5248 93.8089 99.4961 93.7857C98.1491 92.7433 96.4003 92.0715 94.566 91.585C94.136 91.4692 93.6771 91.3534 93.2188 91.2607C92.7314 91.1449 92.2155 91.0291 91.6995 90.9364C83.7304 89.2223 74.8732 87.7629 66.675 88.342C63.9805 88.5273 61.028 89.0833 58.7348 90.3573C56.0973 91.886 55.0081 94.4806 53.7181 96.7737ZM11.724 203.517H167.26L182.166 215.724C183.57 216.883 185.262 217.786 187.068 218.388C188.845 218.967 190.737 219.292 192.686 219.292H256.208C264.463 219.292 271.114 213.825 270.999 207.153C270.856 200.598 264.091 195.409 255.979 195.409H198.878L160.065 163.581C157.055 161.102 155.278 160.083 149.889 160.083C140.602 160.083 11.724 160.152 11.724 160.152C5.24569 160.152 0 164.392 0 169.627V191.587V194.042C0 199.277 5.24569 203.517 11.724 203.517ZM249.672 159.828C249.672 144.702 234.479 132.424 215.761 132.424C197.043 132.424 181.851 144.702 181.851 159.828C181.851 174.955 197.043 187.232 215.761 187.232C234.479 187.232 249.672 174.978 249.672 159.828Z" fill="white"/>
</g>
<defs>
<clipPath id="clip0">
<rect width="271" height="219" fill="white"/>
</clipPath>
</defs>
</svg>
