<?xml version="1.0"?>
<svg xmlns="http://www.w3.org/2000/svg" id="Out_line" data-name="Out line" viewBox="0 0 512 512" width="512" height="512"><path d="M488,248H455.82617C452.03711,152.20337,380.55615,73.52026,288,58.57166V48a32,32,0,0,0-64,0V58.57166C131.44385,73.52026,59.96289,152.20337,56.17383,248H24a8.00008,8.00008,0,0,0-8,8,56.06322,56.06322,0,0,0,56,56H440a56.06322,56.06322,0,0,0,56-56A8.00008,8.00008,0,0,0,488,248ZM240,48a16,16,0,0,1,32,0v8.64087Q264.08069,56.011,256,56q-8.07861,0-16,.64087Zm16,24c98.77661,0,179.61133,78.24,183.81543,176H72.18457C76.38867,150.24,157.22339,72,256,72ZM440,296H72a40.07061,40.07061,0,0,1-39.19629-32H479.19629A40.07061,40.07061,0,0,1,440,296Z"/><path d="M171.9873,110.55176l8.0254,13.84179A152.22413,152.22413,0,0,1,195.21,116.688L188.79,102.03271A168.18509,168.18509,0,0,0,171.9873,110.55176Z"/><path d="M105.99609,180.3877l14.27539,7.2246a153.786,153.786,0,0,1,44.63379-53.2163l-9.60937-12.793A169.85462,169.85462,0,0,0,105.99609,180.3877Z"/><path d="M432,320a107.34047,107.34047,0,0,0-84.23242,40.48438l-.41992.5249L294.87988,376H291.314l26.34327-26.34326A8.00038,8.00038,0,0,0,312,336H289.94141a89.30828,89.30828,0,0,0-61.168,24H194.50977a71.52767,71.52767,0,0,0-50.91211,21.08838L128,396.686l-10.34277-10.34278a8.00122,8.00122,0,0,0-11.31446,0l-88,88,11.31446,11.31348L112,403.314,180.68652,472l-10.34375,10.34326,11.31446,11.31348,16-16a8,8,0,0,0,0-11.31348L187.314,455.99988,195.31348,448H288a8.0014,8.0014,0,0,0,3.07715-.61523l96-40a7.99621,7.99621,0,0,0,3.5791-2.94727l48-72A7.99956,7.99956,0,0,0,432,320Zm-53.3125,73.54688L286.40039,432H192a8.00076,8.00076,0,0,0-5.65723,2.34326L176,444.686,139.314,408l15.59815-15.59814A55.63106,55.63106,0,0,1,194.50977,376H232a8.00076,8.00076,0,0,0,5.65723-2.34326A73.45566,73.45566,0,0,1,289.94141,352h2.74511l-42.34375,42.34326,11.31446,11.31348L275.314,392H296a8.00881,8.00881,0,0,0,2.19824-.30762l56-16a8.00023,8.00023,0,0,0,4.04883-2.69531l2.01465-2.51807a91.361,91.361,0,0,1,55.88476-33.1206Z"/></svg>
